<?xml version="1.0" standalone="no"?>
<!DOCTYPE svg PUBLIC "-//W3C//DTD SVG 20010904//EN"
 "http://www.w3.org/TR/2001/REC-SVG-20010904/DTD/svg10.dtd">
<svg version="1.0" xmlns="http://www.w3.org/2000/svg"
 width="800.000000pt" height="800.000000pt" viewBox="0 0 800.000000 800.000000"
 preserveAspectRatio="xMidYMid meet">

<g transform="translate(0.000000,800.000000) scale(0.100000,-0.100000)"
fill="#000000" stroke="none">
<path d="M3895 5293 c-11 -3 -391 -158 -845 -345 -454 -187 -867 -358 -919
-379 -52 -21 -103 -46 -114 -56 -31 -28 -49 -79 -41 -119 10 -52 50 -85 155
-127 52 -20 99 -41 106 -45 9 -6 13 -98 15 -367 l3 -360 -28 -25 c-19 -18 -56
-95 -128 -275 -117 -289 -121 -311 -65 -362 l36 -33 224 0 c124 0 236 4 249 9
29 11 67 69 67 101 0 41 -203 531 -232 561 l-28 27 0 336 c0 185 3 336 8 336
9 0 272 -107 732 -297 52 -22 219 -90 370 -152 151 -63 306 -126 343 -142 99
-41 183 -55 256 -41 47 8 559 209 821 322 25 11 140 58 255 106 116 47 269
110 340 139 72 30 196 81 277 114 257 105 268 114 268 205 0 75 -26 95 -235
180 -222 91 -637 261 -890 366 -594 246 -715 295 -760 311 -48 18 -190 24
-240 12z"/>
<path d="M2651 3896 c-9 -11 -11 -108 -9 -373 3 -404 -1 -382 87 -476 119
-129 359 -236 666 -296 378 -74 856 -73 1235 5 378 77 667 242 715 407 23 79
18 725 -6 740 -17 10 -59 -6 -859 -339 l-405 -169 -80 1 -80 0 -365 153 c-201
84 -455 191 -565 236 -110 46 -222 92 -248 104 -57 25 -71 26 -86 7z"/>
</g>
</svg>
