<?xml version="1.0" standalone="no"?>
<!DOCTYPE svg PUBLIC "-//W3C//DTD SVG 20010904//EN"
 "http://www.w3.org/TR/2001/REC-SVG-20010904/DTD/svg10.dtd">
<svg version="1.0" xmlns="http://www.w3.org/2000/svg"
 width="800.000000pt" height="800.000000pt" viewBox="0 0 800.000000 800.000000"
 preserveAspectRatio="xMidYMid meet">

<g transform="translate(0.000000,800.000000) scale(0.100000,-0.100000)"
fill="#000000" stroke="none">
<path d="M3865 5281 c-44 -15 -551 -223 -735 -301 -36 -15 -189 -78 -340 -140
-655 -269 -756 -312 -777 -332 -13 -12 -28 -39 -34 -60 -8 -31 -6 -46 9 -82
21 -46 39 -58 195 -121 l67 -28 0 -41 c0 -23 1 -185 3 -361 l2 -320 -26 -22
c-19 -16 -54 -90 -119 -250 -51 -126 -98 -246 -105 -268 -16 -52 -3 -96 36
-129 l31 -26 232 0 c194 0 235 3 254 16 27 19 52 65 52 96 0 13 -47 140 -105
283 -75 186 -112 266 -130 280 l-25 21 0 337 c0 185 4 337 8 337 4 0 69 -25
143 -56 123 -51 330 -136 534 -219 44 -18 163 -67 265 -110 586 -242 621 -255
700 -255 82 0 107 10 1030 392 80 33 215 89 300 124 85 34 238 97 340 139 102
42 209 85 238 97 96 38 139 109 109 180 -8 18 -23 41 -34 50 -11 10 -332 146
-714 303 -382 157 -791 326 -909 374 -118 49 -230 94 -249 100 -52 17 -188 12
-246 -8z"/>
<path d="M2652 3898 c-19 -19 -17 -682 3 -738 36 -102 128 -186 290 -265 271
-132 628 -198 1065 -198 427 1 801 73 1059 204 157 79 272 197 286 292 3 23 5
190 3 371 -3 286 -5 330 -19 339 -16 10 -92 -20 -884 -349 l-380 -158 -80 0
c-88 0 -23 -24 -720 269 -82 34 -202 84 -265 110 -63 26 -161 67 -218 91 -112
48 -122 50 -140 32z"/>
</g>
</svg>
